# xmcd
#
# Track frame offsets:
#	150
#	33632
#	58477
#	75632
#	109150
#	135245
#	161085
#	190570
#	219517
#	244220
#
# Disc length: 3574 seconds
# Revision: 0
# Processed by: cddbd v1.5.2PL0 Copyright (c) Steve Scherf et al.
# Submitted via: dBpowerAMP V12.0
#
DISCID=890df40a
DTITLE=Various Artist - The History of the House Sound of Chicago
DYEAR=1985
DGENRE=House
TTITLE0=JM Silk - Music Is the Key (House Key)
TTITLE1=Arrogance - Crazy (Club Mix)
TTITLE2=Donnie - The It (Club Mix)
TTITLE3=Shawn Christopher - People of All Nations (Club Mix)
TTITLE4=Chip E feat. K Joy - Like This (Extended Mix)
TTITLE5=Farm Boy - Move (Club Mix)
TTITLE6=JM Silk - Shadows of Your Love (House Mix)
TTITLE7=Mark Imperial - J'Adore Danser (Club Mix)
TTITLE8=White Knight - Never Give Up (Club Mix)
TTITLE9=Fingers Inc - A Path (Club Mix)
EXTD=
EXTT0=
EXTT1=
EXTT2=
EXTT3=
EXTT4=
EXTT5=
EXTT6=
EXTT7=
EXTT8=
EXTT9=
PLAYORDER=
